<mxfile host="Electron" agent="Mozilla/5.0 (Windows NT 10.0; Win64; x64) AppleWebKit/537.36 (KHTML, like Gecko) draw.io/26.0.9 Chrome/128.0.6613.186 Electron/32.2.5 Safari/537.36" version="26.0.9">
  <diagram name="Leht-1" id="do8pOoEbOQX9gUv-BLrQ">
    <mxGraphModel dx="1098" dy="988" grid="1" gridSize="10" guides="1" tooltips="1" connect="1" arrows="1" fold="1" page="1" pageScale="1" pageWidth="827" pageHeight="1169" math="0" shadow="0">
      <root>
        <mxCell id="0" />
        <mxCell id="1" parent="0" />
        <mxCell id="8uABkIC6KJ9X2qL8tqFz-1" style="edgeStyle=orthogonalEdgeStyle;rounded=0;orthogonalLoop=1;jettySize=auto;html=1;exitX=0;exitY=0.5;exitDx=0;exitDy=0;entryX=1;entryY=0.5;entryDx=0;entryDy=0;" edge="1" parent="1" source="8uABkIC6KJ9X2qL8tqFz-2" target="8uABkIC6KJ9X2qL8tqFz-5">
          <mxGeometry relative="1" as="geometry" />
        </mxCell>
        <mxCell id="8uABkIC6KJ9X2qL8tqFz-2" value="start (main)" style="ellipse;whiteSpace=wrap;html=1;" vertex="1" parent="1">
          <mxGeometry x="471" y="330" width="120" height="80" as="geometry" />
        </mxCell>
        <mxCell id="8uABkIC6KJ9X2qL8tqFz-3" value="Stop" style="ellipse;whiteSpace=wrap;html=1;" vertex="1" parent="1">
          <mxGeometry x="461" y="1160" width="120" height="80" as="geometry" />
        </mxCell>
        <mxCell id="8uABkIC6KJ9X2qL8tqFz-4" style="edgeStyle=orthogonalEdgeStyle;rounded=0;orthogonalLoop=1;jettySize=auto;html=1;exitX=0.5;exitY=1;exitDx=0;exitDy=0;entryX=0.5;entryY=0;entryDx=0;entryDy=0;" edge="1" parent="1" source="8uABkIC6KJ9X2qL8tqFz-5" target="8uABkIC6KJ9X2qL8tqFz-7">
          <mxGeometry relative="1" as="geometry" />
        </mxCell>
        <mxCell id="8uABkIC6KJ9X2qL8tqFz-5" value="kuvatakse valikud" style="shape=parallelogram;perimeter=parallelogramPerimeter;whiteSpace=wrap;html=1;fixedSize=1;" vertex="1" parent="1">
          <mxGeometry x="285" y="340" width="120" height="60" as="geometry" />
        </mxCell>
        <mxCell id="8uABkIC6KJ9X2qL8tqFz-6" style="edgeStyle=orthogonalEdgeStyle;rounded=0;orthogonalLoop=1;jettySize=auto;html=1;exitX=0.5;exitY=1;exitDx=0;exitDy=0;entryX=0.5;entryY=0;entryDx=0;entryDy=0;" edge="1" parent="1" source="8uABkIC6KJ9X2qL8tqFz-7" target="8uABkIC6KJ9X2qL8tqFz-12">
          <mxGeometry relative="1" as="geometry" />
        </mxCell>
        <mxCell id="8uABkIC6KJ9X2qL8tqFz-7" value="kasutaja valib ühe" style="shape=parallelogram;perimeter=parallelogramPerimeter;whiteSpace=wrap;html=1;fixedSize=1;" vertex="1" parent="1">
          <mxGeometry x="281" y="430" width="120" height="60" as="geometry" />
        </mxCell>
        <mxCell id="8uABkIC6KJ9X2qL8tqFz-8" style="edgeStyle=orthogonalEdgeStyle;rounded=0;orthogonalLoop=1;jettySize=auto;html=1;exitX=0.378;exitY=0.978;exitDx=0;exitDy=0;exitPerimeter=0;" edge="1" parent="1" source="8uABkIC6KJ9X2qL8tqFz-12">
          <mxGeometry relative="1" as="geometry">
            <mxPoint x="331" y="700" as="targetPoint" />
          </mxGeometry>
        </mxCell>
        <mxCell id="8uABkIC6KJ9X2qL8tqFz-9" value="TRUE" style="edgeLabel;html=1;align=center;verticalAlign=middle;resizable=0;points=[];" vertex="1" connectable="0" parent="8uABkIC6KJ9X2qL8tqFz-8">
          <mxGeometry x="-0.15" y="5" relative="1" as="geometry">
            <mxPoint as="offset" />
          </mxGeometry>
        </mxCell>
        <mxCell id="8uABkIC6KJ9X2qL8tqFz-10" style="edgeStyle=orthogonalEdgeStyle;rounded=0;orthogonalLoop=1;jettySize=auto;html=1;exitX=1;exitY=0.5;exitDx=0;exitDy=0;" edge="1" parent="1" source="8uABkIC6KJ9X2qL8tqFz-12">
          <mxGeometry relative="1" as="geometry">
            <mxPoint x="501" y="575" as="targetPoint" />
          </mxGeometry>
        </mxCell>
        <mxCell id="8uABkIC6KJ9X2qL8tqFz-11" value="FALSE" style="edgeLabel;html=1;align=center;verticalAlign=middle;resizable=0;points=[];" vertex="1" connectable="0" parent="8uABkIC6KJ9X2qL8tqFz-10">
          <mxGeometry x="-0.1342" relative="1" as="geometry">
            <mxPoint as="offset" />
          </mxGeometry>
        </mxCell>
        <mxCell id="8uABkIC6KJ9X2qL8tqFz-12" value="kas valik on 3?" style="whiteSpace=wrap;html=1;aspect=fixed;" vertex="1" parent="1">
          <mxGeometry x="296" y="530" width="90" height="90" as="geometry" />
        </mxCell>
        <mxCell id="8uABkIC6KJ9X2qL8tqFz-13" style="edgeStyle=orthogonalEdgeStyle;rounded=0;orthogonalLoop=1;jettySize=auto;html=1;exitX=1;exitY=0.5;exitDx=0;exitDy=0;entryX=0;entryY=0.5;entryDx=0;entryDy=0;" edge="1" parent="1" source="8uABkIC6KJ9X2qL8tqFz-22" target="8uABkIC6KJ9X2qL8tqFz-18">
          <mxGeometry relative="1" as="geometry">
            <mxPoint x="391" y="730" as="sourcePoint" />
          </mxGeometry>
        </mxCell>
        <mxCell id="8uABkIC6KJ9X2qL8tqFz-14" value="kasutaja valis kas muu valiku või on valik vigane" style="rounded=0;whiteSpace=wrap;html=1;" vertex="1" parent="1">
          <mxGeometry x="501" y="545" width="120" height="60" as="geometry" />
        </mxCell>
        <mxCell id="8uABkIC6KJ9X2qL8tqFz-15" style="edgeStyle=orthogonalEdgeStyle;rounded=0;orthogonalLoop=1;jettySize=auto;html=1;exitX=0;exitY=0.5;exitDx=0;exitDy=0;entryX=1;entryY=0.5;entryDx=0;entryDy=0;" edge="1" parent="1" source="8uABkIC6KJ9X2qL8tqFz-16" target="8uABkIC6KJ9X2qL8tqFz-20">
          <mxGeometry relative="1" as="geometry" />
        </mxCell>
        <mxCell id="8uABkIC6KJ9X2qL8tqFz-16" value="kasutaja sisestab teksti" style="shape=parallelogram;perimeter=parallelogramPerimeter;whiteSpace=wrap;html=1;fixedSize=1;" vertex="1" parent="1">
          <mxGeometry x="476" y="810" width="120" height="60" as="geometry" />
        </mxCell>
        <mxCell id="8uABkIC6KJ9X2qL8tqFz-17" style="edgeStyle=orthogonalEdgeStyle;rounded=0;orthogonalLoop=1;jettySize=auto;html=1;exitX=0.5;exitY=1;exitDx=0;exitDy=0;entryX=0.5;entryY=0;entryDx=0;entryDy=0;" edge="1" parent="1" source="8uABkIC6KJ9X2qL8tqFz-18" target="8uABkIC6KJ9X2qL8tqFz-16">
          <mxGeometry relative="1" as="geometry" />
        </mxCell>
        <mxCell id="8uABkIC6KJ9X2qL8tqFz-18" value="&quot;sisesta tekst mida soovid salvestada: &quot;" style="shape=parallelogram;perimeter=parallelogramPerimeter;whiteSpace=wrap;html=1;fixedSize=1;" vertex="1" parent="1">
          <mxGeometry x="451" y="705" width="170" height="80" as="geometry" />
        </mxCell>
        <mxCell id="8uABkIC6KJ9X2qL8tqFz-19" style="edgeStyle=orthogonalEdgeStyle;rounded=0;orthogonalLoop=1;jettySize=auto;html=1;exitX=0.5;exitY=1;exitDx=0;exitDy=0;" edge="1" parent="1" source="8uABkIC6KJ9X2qL8tqFz-20" target="8uABkIC6KJ9X2qL8tqFz-21">
          <mxGeometry relative="1" as="geometry" />
        </mxCell>
        <mxCell id="8uABkIC6KJ9X2qL8tqFz-20" value="&quot;sisesta faili tee kuhu soovid salvestada: &quot;" style="shape=parallelogram;perimeter=parallelogramPerimeter;whiteSpace=wrap;html=1;fixedSize=1;" vertex="1" parent="1">
          <mxGeometry x="260" y="800" width="170" height="80" as="geometry" />
        </mxCell>
        <mxCell id="8uABkIC6KJ9X2qL8tqFz-21" value="kasutaja sisestab faili tee" style="shape=parallelogram;perimeter=parallelogramPerimeter;whiteSpace=wrap;html=1;fixedSize=1;" vertex="1" parent="1">
          <mxGeometry x="267" y="920" width="156" height="80" as="geometry" />
        </mxCell>
        <mxCell id="8uABkIC6KJ9X2qL8tqFz-22" value="kaivita IFjaElse" style="rhombus;whiteSpace=wrap;html=1;" vertex="1" parent="1">
          <mxGeometry x="250" y="700" width="155" height="90" as="geometry" />
        </mxCell>
        <mxCell id="8uABkIC6KJ9X2qL8tqFz-23" style="edgeStyle=orthogonalEdgeStyle;rounded=0;orthogonalLoop=1;jettySize=auto;html=1;exitX=0.5;exitY=1;exitDx=0;exitDy=0;entryX=0.5;entryY=0;entryDx=0;entryDy=0;" edge="1" parent="1" source="8uABkIC6KJ9X2qL8tqFz-27" target="8uABkIC6KJ9X2qL8tqFz-30">
          <mxGeometry relative="1" as="geometry" />
        </mxCell>
        <mxCell id="8uABkIC6KJ9X2qL8tqFz-24" value="TRUE" style="edgeLabel;html=1;align=center;verticalAlign=middle;resizable=0;points=[];" vertex="1" connectable="0" parent="8uABkIC6KJ9X2qL8tqFz-23">
          <mxGeometry x="0.2522" y="1" relative="1" as="geometry">
            <mxPoint as="offset" />
          </mxGeometry>
        </mxCell>
        <mxCell id="8uABkIC6KJ9X2qL8tqFz-25" style="edgeStyle=orthogonalEdgeStyle;rounded=0;orthogonalLoop=1;jettySize=auto;html=1;exitX=0.5;exitY=1;exitDx=0;exitDy=0;" edge="1" parent="1" source="8uABkIC6KJ9X2qL8tqFz-27" target="8uABkIC6KJ9X2qL8tqFz-32">
          <mxGeometry relative="1" as="geometry" />
        </mxCell>
        <mxCell id="8uABkIC6KJ9X2qL8tqFz-26" value="FALSE" style="edgeLabel;html=1;align=center;verticalAlign=middle;resizable=0;points=[];" vertex="1" connectable="0" parent="8uABkIC6KJ9X2qL8tqFz-25">
          <mxGeometry x="-0.0963" y="3" relative="1" as="geometry">
            <mxPoint as="offset" />
          </mxGeometry>
        </mxCell>
        <mxCell id="8uABkIC6KJ9X2qL8tqFz-27" value="proovitakse faili salvestada" style="rhombus;whiteSpace=wrap;html=1;" vertex="1" parent="1">
          <mxGeometry x="451" y="910" width="170" height="100" as="geometry" />
        </mxCell>
        <mxCell id="8uABkIC6KJ9X2qL8tqFz-28" style="edgeStyle=orthogonalEdgeStyle;rounded=0;orthogonalLoop=1;jettySize=auto;html=1;exitX=1;exitY=0.25;exitDx=0;exitDy=0;entryX=0.041;entryY=0.46;entryDx=0;entryDy=0;entryPerimeter=0;" edge="1" parent="1" source="8uABkIC6KJ9X2qL8tqFz-21" target="8uABkIC6KJ9X2qL8tqFz-27">
          <mxGeometry relative="1" as="geometry" />
        </mxCell>
        <mxCell id="8uABkIC6KJ9X2qL8tqFz-29" style="edgeStyle=orthogonalEdgeStyle;rounded=0;orthogonalLoop=1;jettySize=auto;html=1;exitX=0.5;exitY=1;exitDx=0;exitDy=0;entryX=1;entryY=0.5;entryDx=0;entryDy=0;" edge="1" parent="1" source="8uABkIC6KJ9X2qL8tqFz-30" target="8uABkIC6KJ9X2qL8tqFz-3">
          <mxGeometry relative="1" as="geometry" />
        </mxCell>
        <mxCell id="8uABkIC6KJ9X2qL8tqFz-30" value="&quot;fail on edukalt salvestatud&quot;" style="shape=parallelogram;perimeter=parallelogramPerimeter;whiteSpace=wrap;html=1;fixedSize=1;" vertex="1" parent="1">
          <mxGeometry x="551" y="1050" width="120" height="60" as="geometry" />
        </mxCell>
        <mxCell id="8uABkIC6KJ9X2qL8tqFz-31" style="edgeStyle=orthogonalEdgeStyle;rounded=0;orthogonalLoop=1;jettySize=auto;html=1;exitX=0.5;exitY=1;exitDx=0;exitDy=0;entryX=0;entryY=0.5;entryDx=0;entryDy=0;" edge="1" parent="1" source="8uABkIC6KJ9X2qL8tqFz-32" target="8uABkIC6KJ9X2qL8tqFz-3">
          <mxGeometry relative="1" as="geometry" />
        </mxCell>
        <mxCell id="8uABkIC6KJ9X2qL8tqFz-32" value="&quot;esines viga {veateade&quot;" style="shape=parallelogram;perimeter=parallelogramPerimeter;whiteSpace=wrap;html=1;fixedSize=1;" vertex="1" parent="1">
          <mxGeometry x="381" y="1050" width="120" height="60" as="geometry" />
        </mxCell>
      </root>
    </mxGraphModel>
  </diagram>
</mxfile>
